<svg width="96" height="49" viewBox="0 0 96 49" fill="none" xmlns="http://www.w3.org/2000/svg">
<path d="M25.6754 3.50051C37.832 3.50051 47.3919 12.8432 47.3922 24.0122C47.3922 35.1814 37.8322 44.5249 25.6754 44.5249C13.5188 44.5248 3.95959 35.1814 3.95959 24.0122C3.95987 12.8433 13.5189 3.50063 25.6754 3.50051Z" stroke="white" stroke-width="7"/>
<path d="M40.6751 5.59685L23.821 23.5445M23.821 23.5445L42.9526 44.6411H51.6075M23.821 23.5445V3.12405M23.821 23.5445L23.8211 43.4697M51.6075 19.9131V44.6411M51.6075 44.6411H61.6939M61.6939 44.6411V23.5445H71.6827M61.6939 44.6411H81.6715M71.6827 23.5445H81.6715H92.2786V27.2664L81.6715 44.6411M71.6827 23.5445V44.6411M81.6715 44.6411H95.7275" stroke="white" stroke-width="7"/>
</svg>
